<svg xmlns:dc="http://purl.org/dc/elements/1.1/" xmlns:cc="http://creativecommons.org/ns#" xmlns:rdf="http://www.w3.org/1999/02/22-rdf-syntax-ns#" xmlns:svg="http://www.w3.org/2000/svg" xmlns="http://www.w3.org/2000/svg" xmlns:sodipodi="http://sodipodi.sourceforge.net/DTD/sodipodi-0.dtd" xmlns:inkscape="http://www.inkscape.org/namespaces/inkscape" id="svg2" xml:space="preserve" width="491.07999" height="99.053329" viewBox="0 0 491.07999 99.053329" sodipodi:docname="SuperstaQ_SSa-R03a_Mil _Converted_.eps"><metadata></metadata><defs id="defs6"><clipPath clipPathUnits="userSpaceOnUse" id="clipPath20"><path d="M 0,0 H 3683 V 743 H 0 Z" id="path18"></path></clipPath><clipPath clipPathUnits="userSpaceOnUse" id="clipPath26"><path d="m 3675.31,643.668 c -42.71,68.367 -248.69,16.754 -460.1,-115.273 -211.41,-132.028 -348.17,-294.469 -305.49,-362.829 15.35,-24.582 51.9,-33.574 102.13,-28.964 -3.18,11.269 -6.79,22.558 -11.15,33.82 -35.79,-1.926 -61.25,4.801 -71.49,21.211 -33.38,53.457 107.74,210.086 297.86,328.801 190.12,118.746 367.49,176.019 433.25,123.793 23.46,-18.625 16.66,-53.403 5.8,-88.059 18.36,35.785 22.49,66.207 9.19,87.5 z" id="path24"></path></clipPath><linearGradient x1="0" y1="0" x2="1" y2="0" gradientUnits="userSpaceOnUse" gradientTransform="matrix(352.228,-446.857,-446.857,-352.228,3210.79,508.296)" spreadMethod="pad" id="linearGradient32"><stop style="stop-opacity:1;stop-color:#8ad5f2" offset="0" id="stop28"></stop><stop style="stop-opacity:1;stop-color:#1d93c3" offset="1" id="stop30"></stop></linearGradient><clipPath clipPathUnits="userSpaceOnUse" id="clipPath42"><path d="M 3525.57,0 H 3384.16 L 3266.69,160.996 H 3408.1 Z" id="path40"></path></clipPath><linearGradient x1="0" y1="0" x2="1" y2="0" gradientUnits="userSpaceOnUse" gradientTransform="matrix(530.851,617.878,617.878,-530.851,3333.14,7.17406)" spreadMethod="pad" id="linearGradient48"><stop style="stop-opacity:1;stop-color:#52b68b" offset="0" id="stop44"></stop><stop style="stop-opacity:1;stop-color:#85d4b0" offset="1" id="stop46"></stop></linearGradient><clipPath clipPathUnits="userSpaceOnUse" id="clipPath58"><path d="m 3326.53,742.934 c -189.23,0 -342.65,-153.403 -342.65,-342.629 0,-189.242 153.42,-342.637 342.65,-342.637 48.51,0 94.64,10.1445 136.46,28.3281 l -68.27,93.8089 c -21.55,-6.66 -44.45,-10.254 -68.19,-10.254 -127.44,0 -230.75,103.301 -230.75,230.754 0,127.437 103.31,230.746 230.75,230.746 127.42,0 230.75,-103.309 230.75,-230.746 0,-95.957 -58.57,-178.196 -141.89,-213 l 67.01,-92.1019 c 110.84,56.7499 186.76,172.0159 186.76,305.1019 0,189.226 -153.41,342.629 -342.63,342.629 z" id="path56"></path></clipPath><linearGradient x1="0" y1="0" x2="1" y2="0" gradientUnits="userSpaceOnUse" gradientTransform="matrix(530.799,617.817,617.817,-530.799,3135.01,177.437)" spreadMethod="pad" id="linearGradient64"><stop style="stop-opacity:1;stop-color:#52b68b" offset="0" id="stop60"></stop><stop style="stop-opacity:1;stop-color:#85d4b0" offset="1" id="stop62"></stop></linearGradient><clipPath clipPathUnits="userSpaceOnUse" id="clipPath74"><path d="m 1035.06,307.195 c -4.73,-11.679 -11.17,-21.621 -19.32,-29.82 -8.14,-8.203 -17.713,-14.594 -28.709,-19.121 -11.015,-4.531 -22.676,-6.801 -35,-6.801 -12.343,0 -23.945,2.27 -34.843,6.801 -10.899,4.527 -20.43,10.918 -28.575,19.121 -8.144,8.199 -14.59,18.141 -19.316,29.82 -4.727,11.66 -7.09,24.516 -7.09,38.575 0,14.691 2.363,27.855 7.09,39.535 4.726,11.66 11.172,21.543 19.316,29.644 8.145,8.11 17.676,14.317 28.575,18.637 10.898,4.312 22.5,6.48 34.843,6.48 12.324,0 23.985,-2.168 35,-6.48 10.996,-4.32 20.569,-10.527 28.709,-18.637 8.15,-8.101 14.59,-17.984 19.32,-29.644 4.73,-11.68 7.11,-24.844 7.11,-39.535 0,-14.059 -2.38,-26.915 -7.11,-38.575 z m 44.59,171.446 c -16.41,15.976 -35.55,28.363 -57.46,37.113 -21.92,8.75 -45.295,13.125 -70.159,13.125 -11.445,0 -22.793,-1.406 -34.023,-4.223 -11.231,-2.808 -22.07,-6.64 -32.52,-11.504 -10.468,-4.859 -20.527,-10.64 -30.215,-17.343 -9.687,-6.7 -18.613,-13.829 -26.738,-21.383 l -35.996,41.812 H 770.742 V 36.9023 h 90.801 V 192.473 c 6.836,-3.91 13.926,-7.676 21.309,-11.348 7.363,-3.676 14.843,-6.977 22.441,-9.887 7.598,-2.91 15.312,-5.23 23.125,-6.972 7.812,-1.715 15.684,-2.594 23.613,-2.594 24.864,0 48.239,4.219 70.159,12.637 21.91,8.433 41.05,20.582 57.46,36.461 16.4,15.878 29.33,35.214 38.81,58.007 9.45,22.793 14.2,48.457 14.2,76.993 0,27.421 -4.75,52.445 -14.2,75.023 -9.48,22.574 -22.41,41.852 -38.81,57.848 z m 655.26,36.957 c -19.8,0 -38.96,-3.52 -57.46,-10.547 -18.5,-7.035 -35,-17.016 -49.51,-29.961 l -29.73,41.148 h -21.79 V 169.133 h 90.15 v 191.211 c 0,9.297 1.76,18.047 5.28,26.25 3.51,8.203 8.35,15.332 14.53,21.383 6.15,6.054 13.41,10.8 21.77,14.257 8.36,3.457 17.29,5.2 26.76,5.2 h 79.6 v 88.164 z M 638.961,324.363 c 0,-9.297 -1.777,-18.3 -5.293,-27.05 -3.516,-8.75 -8.359,-16.583 -14.512,-23.497 -6.172,-6.914 -13.379,-12.476 -21.621,-16.699 -8.262,-4.219 -17.012,-6.308 -26.25,-6.308 -9.472,0 -18.34,1.601 -26.582,4.843 -8.262,3.243 -15.469,7.989 -21.64,14.258 -6.172,6.274 -11.055,14.008 -14.688,23.188 -3.633,9.175 -5.449,19.586 -5.449,31.265 V 516.238 H 413.121 V 324.363 c 0,-24.843 4.121,-47.265 12.383,-67.246 8.242,-20 19.59,-36.949 34.004,-50.879 14.414,-13.941 31.191,-24.683 50.351,-32.246 19.141,-7.558 39.629,-11.347 61.426,-11.347 9.883,0 19.629,1.25 29.199,3.734 9.571,2.5 18.887,5.816 27.911,10.039 9.023,4.219 17.675,9.18 25.937,14.898 8.242,5.727 15.996,11.836 23.262,18.325 l 29.726,-40.508 h 21.797 V 516.238 H 638.961 Z M 337.305,407.18 c -12.891,12.633 -27.969,22.578 -45.235,29.824 -17.285,7.223 -35.722,10.855 -55.312,10.855 h -94.766 c -6.601,0 -12.773,1.172 -18.496,3.559 -5.723,2.383 -10.723,5.66 -15.019,9.883 -4.297,4.215 -7.657,9.176 -10.0786,14.898 -2.4218,5.727 -3.6132,11.836 -3.6132,18.321 0,6.488 1.1914,12.523 3.6132,18.148 2.4216,5.625 5.7816,10.523 10.0786,14.742 4.296,4.223 9.296,7.5 15.019,9.887 5.723,2.383 11.895,3.57 18.496,3.57 h 217.266 v 93.012 H 141.992 c -19.609,0 -37.988,-3.676 -55.1561,-11.02 C 69.668,615.516 54.6484,605.516 41.7773,592.883 28.8867,580.242 18.7109,565.5 11.2305,548.641 3.73047,531.785 0,513.738 0,494.52 c 0,-19.239 3.73047,-37.34 11.2305,-54.297 7.4804,-16.953 17.6562,-31.754 30.5468,-44.395 12.8711,-12.637 27.8907,-22.637 45.0586,-29.98 17.1681,-7.34 35.5471,-11.012 55.1561,-11.012 h 94.766 c 6.601,0 12.754,-1.195 18.496,-3.574 5.723,-2.383 10.723,-5.664 15.019,-9.883 4.297,-4.223 7.657,-9.121 10.079,-14.746 2.421,-5.625 3.632,-11.66 3.632,-18.149 0,-6.48 -1.211,-12.515 -3.632,-18.14 -2.422,-5.625 -5.782,-10.531 -10.079,-14.746 -4.296,-4.219 -9.296,-7.524 -15.019,-9.907 -5.742,-2.382 -11.895,-3.55 -18.496,-3.55 H 26.4258 V 169.133 H 236.758 c 19.59,0 38.027,3.672 55.312,11.012 17.266,7.343 32.344,17.328 45.235,29.984 12.871,12.637 22.988,27.383 30.371,44.234 7.383,16.836 11.074,34.887 11.074,54.121 0,19.219 -3.691,37.325 -11.074,54.282 -7.383,16.953 -17.5,31.754 -30.371,44.414 z" id="path72"></path></clipPath><linearGradient x1="0" y1="0" x2="1" y2="0" gradientUnits="userSpaceOnUse" gradientTransform="matrix(4.99945,-667.386,-667.386,-4.99945,905.865,690.082)" spreadMethod="pad" id="linearGradient80"><stop style="stop-opacity:1;stop-color:#ffffff" offset="0" id="stop76"></stop><stop style="stop-opacity:1;stop-color:#657b8c" offset="1" id="stop78"></stop></linearGradient><clipPath clipPathUnits="userSpaceOnUse" id="clipPath90"><path d="m 2743.68,310.586 c -4.73,-11.348 -11.18,-21.387 -19.32,-30.137 -8.14,-8.75 -17.65,-15.781 -28.55,-21.074 -10.9,-5.293 -22.52,-7.93 -34.85,-7.93 -12.32,0 -23.92,2.051 -34.82,6.153 -10.9,4.101 -20.37,10.136 -28.4,18.144 -8.05,7.988 -14.38,17.871 -18.99,29.649 -4.62,11.777 -6.93,25.234 -6.93,40.371 0,15.117 2.31,28.554 6.93,40.332 4.61,11.777 10.94,21.66 18.99,29.668 8.03,7.988 17.5,14.043 28.4,18.144 10.9,4.102 22.5,6.153 34.82,6.153 12.33,0 23.95,-2.657 34.85,-7.95 10.9,-5.293 20.41,-12.304 28.55,-21.054 8.14,-8.75 14.59,-18.809 19.32,-30.137 4.72,-11.348 7.11,-23.066 7.11,-35.156 0,-12.11 -2.39,-23.848 -7.11,-35.176 z m 76.11,205 -35,-41.172 c -8.36,7.774 -17.34,15.02 -26.91,21.719 -9.57,6.699 -19.65,12.539 -30.22,17.5 -10.56,4.961 -21.46,8.847 -32.69,11.66 -11.23,2.812 -22.56,4.219 -34.01,4.219 -24.88,0 -48.26,-4.492 -70.15,-13.457 -21.92,-8.965 -41.06,-21.543 -57.47,-37.754 -16.4,-16.211 -29.33,-35.586 -38.78,-58.164 -9.48,-22.578 -14.2,-47.383 -14.2,-74.375 0,-28.965 4.72,-54.785 14.2,-77.481 9.45,-22.695 22.38,-41.855 38.78,-57.519 16.41,-15.664 35.55,-27.617 57.47,-35.821 21.89,-8.183 45.27,-12.304 70.15,-12.304 11.45,0 22.72,1.406 33.85,4.218 11.11,2.813 21.95,6.641 32.52,11.504 10.57,4.844 20.64,10.567 30.21,17.168 9.57,6.602 18.66,13.672 27.25,21.231 l 35,-47.637 h 21.8 V 515.586 Z M 2149.11,353.848 c -10.12,9.062 -22.02,16.152 -35.65,21.23 -13.65,5.078 -28.18,7.617 -43.59,7.617 h -93.77 c -6.17,0 -11.47,2.207 -15.86,6.641 -4.41,4.434 -6.6,9.785 -6.6,16.055 0,6.035 2.19,11.211 6.6,15.547 4.39,4.316 9.69,6.484 15.86,6.484 h 182.6 v 88.164 h -182.6 c -15.65,0 -30.29,-2.871 -43.93,-8.594 -13.65,-5.742 -25.54,-13.574 -35.66,-23.496 -10.12,-9.941 -18.11,-21.601 -23.93,-35 -5.84,-13.398 -8.75,-27.773 -8.75,-43.105 0,-15.352 2.91,-29.707 8.75,-43.106 5.82,-13.398 13.81,-25.137 23.93,-35.176 10.12,-10.039 22.01,-17.988 35.66,-23.808 13.64,-5.84 28.28,-8.75 43.93,-8.75 h 93.77 c 6.17,0 11.44,-0.977 15.86,-2.93 4.39,-1.953 6.6,-6.055 6.6,-12.305 0,-6.054 -2.21,-11.25 -6.6,-15.566 -4.42,-4.316 -9.69,-6.465 -15.86,-6.465 h -206.04 v -88.164 h 206.04 c 15.41,0 29.94,2.852 43.59,8.574 13.63,5.723 25.53,13.614 35.65,23.672 10.11,10.039 18.16,21.719 24.1,35 5.94,13.281 8.92,27.598 8.92,42.949 0,15.118 -2.98,29.043 -8.92,41.797 -5.94,12.754 -13.99,23.672 -24.1,32.735 z m 176.35,300.449 h -89.8 V 515.586 h -43.93 v -88.164 h 43.93 V 324.355 c 0,-21.386 4.12,-41.484 12.38,-60.273 8.24,-18.809 19.59,-35.293 34.01,-49.434 14.41,-14.14 31.21,-25.273 50.35,-33.378 19.14,-8.106 39.63,-12.149 61.42,-12.149 h 68.36 v 88.164 h -68.36 c -9.47,0 -18.4,1.778 -26.75,5.332 -8.36,3.555 -15.63,8.36 -21.8,14.414 -6.17,6.055 -11.02,13.125 -14.53,21.231 -3.52,8.105 -5.28,16.797 -5.28,26.093 v 103.067 h 136.72 v 88.164 h -136.72 z" id="path88"></path></clipPath><linearGradient x1="0" y1="0" x2="1" y2="0" gradientUnits="userSpaceOnUse" gradientTransform="matrix(-28.0415,-728.979,-728.979,28.0415,2373.66,832.946)" spreadMethod="pad" id="linearGradient96"><stop style="stop-opacity:1;stop-color:#8ad5f2" offset="0" id="stop92"></stop><stop style="stop-opacity:1;stop-color:#1d93c3" offset="1" id="stop94"></stop></linearGradient><clipPath clipPathUnits="userSpaceOnUse" id="clipPath106"><path d="m 3369.8,280.84 c 19.63,12.246 38.59,24.765 56.86,37.441 -23.48,4.668 -58.17,15.235 -64.83,10.977 -4.07,-2.598 -10.72,-20.93 -14.85,-23.504 -131.77,-82.309 -265.48,-130.969 -346.28,-135.332 4.36,-11.262 7.97,-22.551 11.15,-33.82 89.47,8.203 222.57,59.687 357.95,144.238 z" id="path104"></path></clipPath><linearGradient x1="0" y1="0" x2="1" y2="0" gradientUnits="userSpaceOnUse" gradientTransform="matrix(352.238,-446.869,-446.869,-352.238,3079.46,404.785)" spreadMethod="pad" id="linearGradient112"><stop style="stop-opacity:1;stop-color:#8ad5f2" offset="0" id="stop108"></stop><stop style="stop-opacity:1;stop-color:#1d93c3" offset="1" id="stop110"></stop></linearGradient><clipPath clipPathUnits="userSpaceOnUse" id="clipPath122"><path d="m 3437.91,318.328 c 0,-25.105 -20.37,-45.457 -45.47,-45.457 -25.11,0 -45.46,20.352 -45.46,45.457 0,25.11 20.35,45.461 45.46,45.461 25.1,0 45.47,-20.351 45.47,-45.461 z" id="path120"></path></clipPath><linearGradient x1="0" y1="0" x2="1" y2="0" gradientUnits="userSpaceOnUse" gradientTransform="matrix(352.281,-446.924,-446.924,-352.281,3230.45,523.837)" spreadMethod="pad" id="linearGradient128"><stop style="stop-opacity:1;stop-color:#8ad5f2" offset="0" id="stop124"></stop><stop style="stop-opacity:1;stop-color:#1d93c3" offset="1" id="stop126"></stop></linearGradient><clipPath clipPathUnits="userSpaceOnUse" id="clipPath138"><path d="m 3421.29,340.5 c 0,-10.859 -11.99,-19.68 -26.79,-19.68 -14.79,0 -26.78,8.821 -26.78,19.68 0,10.867 11.99,19.676 26.78,19.676 14.8,0 26.79,-8.809 26.79,-19.676 z" id="path136"></path></clipPath><linearGradient x1="0" y1="0" x2="1" y2="0" gradientUnits="userSpaceOnUse" gradientTransform="matrix(57.8322,-2.62878,-2.62878,-57.8322,3406.07,339.972)" spreadMethod="pad" id="linearGradient144"><stop style="stop-opacity:1;stop-color:#8ad5f2" offset="0" id="stop140"></stop><stop style="stop-opacity:1;stop-color:#1d93c3" offset="1" id="stop142"></stop></linearGradient><clipPath clipPathUnits="userSpaceOnUse" id="clipPath154"><path d="m 3410.37,290.184 c 0,-6.036 -7.35,-10.926 -16.42,-10.926 -9.04,0 -16.4,4.89 -16.4,10.926 0,6.046 7.36,10.949 16.4,10.949 9.07,0 16.42,-4.903 16.42,-10.949 z" id="path152"></path></clipPath><linearGradient x1="0" y1="0" x2="1" y2="0" gradientUnits="userSpaceOnUse" gradientTransform="matrix(57.8455,-2.62938,-2.62938,-57.8455,3403.8,289.748)" spreadMethod="pad" id="linearGradient160"><stop style="stop-opacity:1;stop-color:#8ad5f2" offset="0" id="stop156"></stop><stop style="stop-opacity:1;stop-color:#1d93c3" offset="1" id="stop158"></stop></linearGradient><clipPath clipPathUnits="userSpaceOnUse" id="clipPath170"><path d="m 1281.2,425.098 c 4.17,4.328 8.76,8.093 13.71,11.371 15.35,10.988 34.12,17.523 54.44,17.523 38.27,0 71.13,-22.961 85.7,-55.84 h -171.54 c 4.48,10.317 10.33,19.336 17.69,26.946 z m 194.4,-98.606 h 46.97 c 1.51,9.77 2.47,19.738 2.47,30.071 0,27.656 -4.74,52.773 -14.2,75.351 -9.47,22.578 -22.34,41.914 -38.63,58.008 -16.29,16.094 -35.39,28.516 -57.28,37.266 -21.92,8.75 -45.41,13.125 -70.49,13.125 -24.88,0 -48.28,-4.649 -70.18,-13.946 -21.91,-9.297 -41.05,-22.09 -57.46,-38.398 -16.4,-16.309 -29.33,-35.703 -38.79,-58.164 -9.47,-22.481 -14.2,-46.895 -14.2,-73.242 0,-9.172 0.81,-18.047 2,-26.778 14.56,-88.34 91.07,-155.793 183.54,-155.793 5.94,0 11.79,0.371 17.59,0.918 16.74,1.992 32.77,6.106 47.99,12.629 21.89,9.395 40.99,22.246 57.28,38.555 16.29,16.308 29.16,35.644 38.63,58.008 0.68,1.601 1.15,3.273 1.78,4.89 h -102.43 c -2.65,-2.254 -5.45,-4.312 -8.33,-6.269 -6.73,-5.633 -14.25,-10.211 -22.6,-13.68 -10.89,-4.531 -22.52,-6.797 -34.82,-6.797 -12.35,0 -23.95,2.422 -34.85,7.285 -10.89,4.864 -20.37,11.504 -28.39,19.942 -8.05,8.418 -14.38,18.359 -18.99,29.804 -0.95,2.356 -1.74,4.778 -2.5,7.215 h 177.03 z" id="path168"></path></clipPath><linearGradient x1="0" y1="0" x2="1" y2="0" gradientUnits="userSpaceOnUse" gradientTransform="matrix(-13.3302,-459.999,-459.999,13.3302,1351.31,594.421)" spreadMethod="pad" id="linearGradient176"><stop style="stop-opacity:1;stop-color:#ffffff" offset="0" id="stop172"></stop><stop style="stop-opacity:1;stop-color:#657b8c" offset="1" id="stop174"></stop></linearGradient></defs><g id="g10" inkscape:groupmode="layer" inkscape:label="ink_ext_XXXXXX" transform="matrix(1.3333333,0,0,-1.3333333,0,99.053333)"><g id="g12" transform="scale(0.1)"><g id="g14"><g id="g16" clip-path="url(#clipPath20)"><g id="g22" clip-path="url(#clipPath26)"><path d="m 2974,135 v 1 h -10 v 1 h -7 v 1 h -4 v 1 h -5 v 1 h -3 v 1 h -3 v 1 h -3 v 1 h -3 v 1 h -2 v 1 h -2 v 1 h -2 v 1 h -2 v 1 h -2 v 1 h -1 v 1 h -2 v 1 h -1 v 1 h -1 v 1 h -1 v 1 h -2 v 1 h -1 v 1 h -1 v 1 h -1 v 1 h -1 v 1 h -1 v 2 h -1 v 1 h -1 v 1 h -1 v 2 h -1 v 1 h -1 v 2 h -1 v 2 h -1 v 3 h -1 v 3 h -1 v 2 h -1 v 8 h -1 v 8 h -1 v 3 h 1 v 8 h 1 v 9 h 1 v 3 h 1 v 4 h 1 v 3 h 1 v 3 h 1 v 4 h 1 v 3 h 1 v 2 h 1 v 2 h 1 v 2 h 1 v 3 h 1 v 2 h 1 v 2 h 1 v 2 h 1 v 3 h 1 v 2 h 1 v 2 h 1 v 1 h 1 v 2 h 1 v 2 h 1 v 1 h 1 v 2 h 1 v 2 h 1 v 2 h 1 v 1 h 1 v 2 h 1 v 2 h 1 v 2 h 1 v 1 h 1 v 2 h 1 v 1 h 1 v 2 h 1 v 1 h 1 v 2 h 1 v 1 h 1 v 1 h 1 v 2 h 1 v 1 h 1 v 2 h 1 v 1 h 1 v 2 h 1 v 1 h 1 v 2 h 1 v 1 h 1 v 1 h 1 v 2 h 1 v 1 h 1 v 1 h 1 v 1 h 1 v 2 h 1 v 1 h 1 v 1 h 1 v 2 h 1 v 1 h 1 v 1 h 1 v 1 h 1 v 2 h 1 v 1 h 1 v 1 h 1 v 1 h 1 v 2 h 1 v 1 h 1 v 1 h 1 v 1 h 1 v 2 h 1 v 1 h 1 v 1 h 1 v 1 h 1 v 1 h 1 v 1 h 1 v 1 h 1 v 1 h 1 v 2 h 1 v 1 h 1 v 1 h 1 v 1 h 1 v 1 h 1 v 1 h 1 v 1 h 1 v 1 h 1 v 2 h 1 v 1 h 1 v 1 h 1 v 1 h 1 v 1 h 1 v 1 h 1 v 1 h 1 v 1 h 1 v 1 h 1 v 1 h 1 v 1 h 1 v 1 h 1 v 1 h 1 v 1 h 1 v 1 h 1 v 1 h 1 v 1 h 1 v 1 h 1 v 1 h 1 v 1 h 1 v 1 h 1 v 2 h 1 v 1 h 1 v 1 h 1 v 1 h 1 v 1 h 1 v 1 h 1 v 1 h 1 v 1 h 1 v 1 h 1 v 1 h 1 v 1 h 1 v 1 h 1 v 1 h 2 v 1 h 1 v 1 h 1 v 1 h 1 v 1 h 1 v 1 h 1 v 1 h 1 v 1 h 1 v 1 h 1 v 1 h 1 v 1 h 1 v 1 h 1 v 1 h 1 v 1 h 1 v 1 h 1 v 1 h 2 v 1 h 1 v 1 h 1 v 1 h 1 v 1 h 1 v 1 h 1 v 1 h 1 v 1 h 1 v 1 h 1 v 1 h 1 v 1 h 1 v 1 h 2 v 1 h 1 v 1 h 1 v 1 h 1 v 1 h 1 v 1 h 1 v 1 h 2 v 1 h 1 v 1 h 1 v 1 h 1 v 1 h 1 v 1 h 1 v 1 h 2 v 1 h 1 v 1 h 1 v 1 h 1 v 1 h 1 v 1 h 1 v 1 h 1 v 1 h 2 v 1 h 1 v 1 h 1 v 1 h 1 v 1 h 1 v 1 h 2 v 1 h 1 v 1 h 1 v 1 h 1 v 1 h 2 v 1 h 1 v 1 h 1 v 1 h 1 v 1 h 1 v 1 h 2 v 1 h 1 v 1 h 1 v 1 h 1 v 1 h 2 v 1 h 1 v 1 h 1 v 1 h 1 v 1 h 2 v 1 h 1 v 1 h 1 v 1 h 1 v 1 h 2 v 1 h 1 v 1 h 1 v 1 h 1 v 1 h 2 v 1 h 1 v 1 h 1 v 1 h 2 v 1 h 1 v 1 h 1 v 1 h 2 v 1 h 1 v 1 h 1 v 1 h 2 v 1 h 1 v 1 h 1 v 1 h 2 v 1 h 1 v 1 h 1 v 1 h 2 v 1 h 1 v 1 h 1 v 1 h 2 v 1 h 1 v 1 h 2 v 1 h 1 v 1 h 1 v 1 h 2 v 1 h 1 v 1 h 1 v 1 h 2 v 1 h 1 v 1 h 1 v 1 h 2 v 1 h 1 v 1 h 2 v 1 h 1 v 1 h 2 v 1 h 1 v 1 h 2 v 1 h 1 v 1 h 1 v 1 h 2 v 1 h 1 v 1 h 2 v 1 h 1 v 1 h 2 v 1 h 1 v 1 h 1 v 1 h 2 v 1 h 1 v 1 h 2 v 1 h 1 v 1 h 2 v 1 h 1 v 1 h 2 v 1 h 1 v 1 h 2 v 1 h 1 v 1 h 2 v 1 h 1 v 1 h 2 v 1 h 1 v 1 h 2 v 1 h 1 v 1 h 2 v 1 h 1 v 1 h 2 v 1 h 1 v 1 h 2 v 1 h 1 v 1 h 2 v 1 h 1 v 1 h 2 v 1 h 1 v 1 h 2 v 1 h 2 v 1 h 1 v 1 h 2 v 1 h 1 v 1 h 2 v 1 h 2 v 1 h 1 v 1 h 2 v 1 h 1 v 1 h 2 v 1 h 2 v 1 h 1 v 1 h 2 v 1 h 2 v 1 h 1 v 1 h 2 v 1 h 2 v 1 h 1 v 1 h 2 v 1 h 2 v 1 h 1 v 1 h 2 v 1 h 2 v 1 h 2 v 1 h 1 v 1 h 2 v 1 h 2 v 1 h 1 v 1 h 2 v 1 h 2 v 1 h 1 v 1 h 2 v 1 h 2 v 1 h 2 v 1 h 2 v 1 h 1 v 1 h 2 v 1 h 2 v 1 h 2 v 1 h 2 v 1 h 1 v 1 h 2 v 1 h 2 v 1 h 2 v 1 h 2 v 1 h 1 v 1 h 2 v 1 h 2 v 1 h 2 v 1 h 2 v 1 h 1 v 1 h 2 v 1 h 2 v 1 h 2 v 1 h 2 v 1 h 2 v 1 h 2 v 1 h 2 v 1 h 2 v 1 h 2 v 1 h 2 v 1 h 2 v 1 h 2 v 1 h 2 v 1 h 2 v 1 h 1 v 1 h 2 v 1 h 2 v 1 h 2 v 1 h 2 v 1 h 2 v 1 h 2 v 1 h 2 v 1 h 3 v 1 h 2 v 1 h 2 v 1 h 2 v 1 h 2 v 1 h 2 v 1 h 2 v 1 h 2 v 1 h 3 v 1 h 2 v 1 h 2 v 1 h 2 v 1 h 2 v 1 h 2 v 1 h 2 v 1 h 2 v 1 h 3 v 1 h 2 v 1 h 2 v 1 h 3 v 1 h 2 v 1 h 2 v 1 h 3 v 1 h 2 v 1 h 3 v 1 h 2 v 1 h 2 v 1 h 3 v 1 h 2 v 1 h 2 v 1 h 3 v 1 h 2 v 1 h 3 v 1 h 2 v 1 h 3 v 1 h 3 v 1 h 2 v 1 h 3 v 1 h 2 v 1 h 3 v 1 h 3 v 1 h 2 v 1 h 3 v 1 h 3 v 1 h 2 v 1 h 3 v 1 h 3 v 1 h 3 v 1 h 3 v 1 h 3 v 1 h 3 v 1 h 3 v 1 h 3 v 1 h 3 v 1 h 3 v 1 h 3 v 1 h 4 v 1 h 3 v 1 h 4 v 1 h 3 v 1 h 4 v 1 h 4 v 1 h 3 v 1 h 4 v 1 h 3 v 1 h 5 v 1 h 4 v 1 h 5 v 1 h 4 v 1 h 5 v 1 h 5 v 1 h 4 v 1 h 7 v 1 h 7 v 1 h 6 v 1 h 7 v 1 h 14 v 1 h 36 v -1 h 6 v -1 h 6 v -1 h 6 v -1 h 4 v -1 h 2 v -1 h 3 v -1 h 3 v -1 h 3 v -1 h 3 v -1 h 2 v -1 h 1 v -1 h 2 v -1 h 1 v -1 h 2 v -1 h 1 v -1 h 2 v -1 h 2 v -1 h 1 v -1 h 1 v -1 h 1 v -1 h 1 v -1 h 1 v -1 h 1 v -1 h 1 v -1 h 1 v -1 h 1 v -2 h 1 v -1 h 1 v -2 h 1 v -2 h 1 v -2 h 1 v -2 h 1 v -3 h 1 v -4 h 1 v -3 h 1 v -25 h -1 v -6 h -1 v -5 h -1 v -3 h -1 v -4 h -1 v -3 h -1 v -3 h -1 v -2 h -1 v -3 h -1 v -2 h -1 v -3 h -1 v -2 h -1 v -2 h -1 v -2 h -1 v -3 h -1 v -2 h -1 v -1 h -1 v 3 h 1 v 4 h 1 v 3 h 1 v 4 h 1 v 4 h 1 v 4 h 1 v 4 h 1 v 6 h 1 v 5 h 1 v 12 h 1 v 2 h -1 v 11 h -1 v 4 h -1 v 4 h -1 v 2 h -1 v 2 h -1 v 2 h -1 v 2 h -1 v 2 h -1 v 1 h -1 v 1 h -1 v 1 h -1 v 1 h -1 v 1 h -1 v 1 h -1 v 1 h -1 v 1 h -1 v 1 h -1 v 1 h -2 v 1 h -2 v 1 h -1 v 1 h -2 v 1 h -2 v 1 h -1 v 1 h -2 v 1 h -3 v 1 h -3 v 1 h -2 v 1 h -3 v 1 h -3 v 1 h -3 v 1 h -5 v 1 h -5 v 1 h -5 v 1 h -13 v 1 h -22 v -1 h -14 v -1 h -7 v -1 h -8 v -1 h -7 v -1 h -4 v -1 h -5 v -1 h -5 v -1 h -5 v -1 h -5 v -1 h -4 v -1 h -3 v -1 h -4 v -1 h -4 v -1 h -4 v -1 h -3 v -1 h -4 v -1 h -4 v -1 h -3 v -1 h -3 v -1 h -3 v -1 h -3 v -1 h -3 v -1 h -3 v -1 h -3 v -1 h -3 v -1 h -3 v -1 h -3 v -1 h -3 v -1 h -2 v -1 h -3 v -1 h -3 v -1 h -3 v -1 h -2 v -1 h -3 v -1 h -3 v -1 h -2 v -1 h -3 v -1 h -2 v -1 h -3 v -1 h -2 v -1 h -3 v -1 h -2 v -1 h -2 v -1 h -3 v -1 h -2 v -1 h -3 v -1 h -2 v -1 h -2 v -1 h -3 v -1 h -2 v -1 h -3 v -1 h -2 v -1 h -2 v -1 h -2 v -1 h -2 v -1 h -2 v -1 h -3 v -1 h -2 v -1 h -2 v -1 h -2 v -1 h -2 v -1 h -3 v -1 h -2 v -1 h -2 v -1 h -2 v -1 h -2 v -1 h -2 v -1 h -2 v -1 h -2 v -1 h -2 v -1 h -2 v -1 h -2 v -1 h -2 v -1 h -2 v -1 h -2 v -1 h -2 v -1 h -2 v -1 h -2 v -1 h -2 v -1 h -2 v -1 h -2 v -1 h -2 v -1 h -2 v -1 h -2 v -1 h -2 v -1 h -2 v -1 h -2 v -1 h -2 v -1 h -1 v -1 h -2 v -1 h -2 v -1 h -2 v -1 h -2 v -1 h -2 v -1 h -2 v -1 h -2 v -1 h -1 v -1 h -2 v -1 h -2 v -1 h -2 v -1 h -2 v -1 h -2 v -1 h -1 v -1 h -2 v -1 h -2 v -1 h -2 v -1 h -1 v -1 h -2 v -1 h -2 v -1 h -2 v -1 h -1 v -1 h -2 v -1 h -2 v -1 h -2 v -1 h -1 v -1 h -2 v -1 h -2 v -1 h -2 v -1 h -1 v -1 h -2 v -1 h -2 v -1 h -2 v -1 h -1 v -1 h -2 v -1 h -2 v -1 h -1 v -1 h -2 v -1 h -2 v -1 h -1 v -1 h -2 v -1 h -2 v -1 h -1 v -1 h -2 v -1 h -2 v -1 h -1 v -1 h -2 v -1 h -2 v -1 h -1 v -1 h -2 v -1 h -1 v -1 h -2 v -1 h -2 v -1 h -1 v -1 h -2 v -1 h -1 v -1 h -2 v -1 h -2 v -1 h -1 v -1 h -2 v -1 h -1 v -1 h -2 v -1 h -1 v -1 h -2 v -1 h -1 v -1 h -2 v -1 h -1 v -1 h -2 v -1 h -1 v -1 h -2 v -1 h -1 v -1 h -2 v -1 h -2 v -1 h -1 v -1 h -2 v -1 h -1 v -1 h -2 v -1 h -1 v -1 h -1 v -1 h -2 v -1 h -1 v -1 h -2 v -1 h -1 v -1 h -2 v -1 h -1 v -1 h -2 v -1 h -1 v -1 h -1 v -1 h -2 v -1 h -1 v -1 h -2 v -1 h -1 v -1 h -2 v -1 h -1 v -1 h -2 v -1 h -1 v -1 h -1 v -1 h -2 v -1 h -1 v -1 h -2 v -1 h -1 v -1 h -1 v -1 h -2 v -1 h -1 v -1 h -2 v -1 h -1 v -1 h -1 v -1 h -2 v -1 h -1 v -1 h -1 v -1 h -2 v -1 h -1 v -1 h -1 v -1 h -2 v -1 h -1 v -1 h -1 v -1 h -2 v -1 h -1 v -1 h -1 v -1 h -2 v -1 h -1 v -1 h -1 v -1 h -2 v -1 h -1 v -1 h -1 v -1 h -2 v -1 h -1 v -1 h -1 v -1 h -1 v -1 h -2 v -1 h -1 v -1 h -1 v -1 h -2 v -1 h -1 v -1 h -1 v -1 h -1 v -1 h -2 v -1 h -1 v -1 h -1 v -1 h -1 v -1 h -2 v -1 h -1 v -1 h -1 v -1 h -1 v -1 h -2 v -1 h -1 v -1 h -1 v -1 h -1 v -1 h -2 v -1 h -1 v -1 h -1 v -1 h -1 v -1 h -1 v -1 h -2 v -1 h -1 v -1 h -1 v -1 h -1 v -1 h -1 v -1 h -1 v -1 h -2 v -1 h -1 v -1 h -1 v -1 h -1 v -1 h -1 v -1 h -2 v -1 h -1 v -1 h -1 v -1 h -1 v -1 h -1 v -1 h -2 v -1 h -1 v -1 h -1 v -1 h -1 v -1 h -1 v -1 h -1 v -1 h -1 v -1 h -1 v -1 h -1 v -1 h -2 v -1 h -1 v -1 h -1 v -1 h -1 v -1 h -1 v -1 h -1 v -1 h -1 v -1 h -1 v -1 h -1 v -1 h -2 v -1 h -1 v -1 h -1 v -1 h -1 v -1 h -1 v -1 h -1 v -1 h -1 v -1 h -1 v -1 h -1 v -1 h -1 v -1 h -1 v -1 h -1 v -1 h -1 v -1 h -1 v -1 h -2 v -1 h -1 v -1 h -1 v -1 h -1 v -1 h -1 v -1 h -1 v -1 h -1 v -1 h -1 v -1 h -1 v -1 h -1 v -1 h -1 v -1 h -1 v -1 h -1 v -1 h -1 v -1 h -1 v -1 h -1 v -1 h -1 v -1 h -1 v -1 h -1 v -1 h -1 v -1 h -1 v -1 h -1 v -1 h -1 v -1 h -1 v -1 h -1 v -1 h -1 v -1 h -1 v -2 h -1 v -1 h -1 v -1 h -1 v -1 h -1 v -1 h -1 v -1 h -1 v -1 h -1 v -1 h -1 v -1 h -1 v -1 h -1 v -1 h -1 v -1 h -1 v -1 h -1 v -1 h -1 v -1 h -1 v -2 h -1 v -1 h -1 v -1 h -1 v -1 h -1 v -1 h -1 v -1 h -1 v -2 h -1 v -1 h -1 v -1 h -1 v -1 h -1 v -1 h -1 v -1 h -1 v -2 h -1 v -1 h -1 v -1 h -1 v -1 h -1 v -1 h -1 v -1 h -1 v -2 h -1 v -1 h -1 v -1 h -1 v -2 h -1 v -1 h -1 v -1 h -1 v -1 h -1 v -2 h -1 v -1 h -1 v -1 h -1 v -2 h -1 v -1 h -1 v -1 h -1 v -2 h -1 v -1 h -1 v -1 h -1 v -2 h -1 v -1 h -1 v -2 h -1 v -1 h -1 v -2 h -1 v -1 h -1 v -2 h -1 v -1 h -1 v -2 h -1 v -1 h -1 v -2 h -1 v -1 h -1 v -2 h -1 v -1 h -1 v -2 h -1 v -2 h -1 v -2 h -1 v -2 h -1 v -1 h -1 v -2 h -1 v -2 h -1 v -2 h -1 v -2 h -1 v -2 h -1 v -2 h -1 v -2 h -1 v -3 h -1 v -2 h -1 v -3 h -1 v -2 h -1 v -3 h -1 v -4 h -1 v -5 h -1 v -5 h -1 v -14 h 1 v -3 h 1 v -3 h 1 v -3 h 1 v -2 h 1 v -1 h 1 v -1 h 1 v -2 h 1 v -1 h 1 v -1 h 1 v -1 h 2 v -1 h 1 v -1 h 1 v -1 h 1 v -1 h 2 v -1 h 2 v -1 h 2 v -1 h 2 v -1 h 3 v -1 h 3 v -1 h 3 v -1 h 4 v -1 h 4 v -1 h 8 v -1 h 28 v -1 h 1 v -3 h 1 v -3 h 1 v -3 h 1 v -3 h 1 v -3 h 1 v -3 h 1 v -3 h 1 v -3 h 1 v -3 h 1 v -3 h 1 v -4 h -8 v -1" style="fill:url(#linearGradient32);fill-opacity:1;fill-rule:nonzero;stroke:none" id="path34"></path></g></g></g><g id="g36"><g id="g38" clip-path="url(#clipPath42)"><path d="M 3525.57,0 H 3384.16 L 3266.69,160.996 H 3408.1 L 3525.57,0" style="fill:url(#linearGradient48);fill-opacity:1;fill-rule:nonzero;stroke:none" id="path50"></path></g></g><g id="g52"><g id="g54" clip-path="url(#clipPath58)"><path d="m 3326.53,742.934 c -189.23,0 -342.65,-153.403 -342.65,-342.629 0,-189.242 153.42,-342.637 342.65,-342.637 48.51,0 94.64,10.1445 136.46,28.3281 l -68.27,93.8089 c -21.55,-6.66 -44.45,-10.254 -68.19,-10.254 -127.44,0 -230.75,103.301 -230.75,230.754 0,127.437 103.31,230.746 230.75,230.746 127.42,0 230.75,-103.309 230.75,-230.746 0,-95.957 -58.57,-178.196 -141.89,-213 l 67.01,-92.1019 c 110.84,56.7499 186.76,172.0159 186.76,305.1019 0,189.226 -153.41,342.629 -342.63,342.629" style="fill:url(#linearGradient64);fill-opacity:1;fill-rule:nonzero;stroke:none" id="path66"></path></g></g><g id="g68"><g id="g70" clip-path="url(#clipPath74)"><path d="m 1035.06,307.195 c -4.73,-11.679 -11.17,-21.621 -19.32,-29.82 -8.14,-8.203 -17.713,-14.594 -28.709,-19.121 -11.015,-4.531 -22.676,-6.801 -35,-6.801 -12.343,0 -23.945,2.27 -34.843,6.801 -10.899,4.527 -20.43,10.918 -28.575,19.121 -8.144,8.199 -14.59,18.141 -19.316,29.82 -4.727,11.66 -7.09,24.516 -7.09,38.575 0,14.691 2.363,27.855 7.09,39.535 4.726,11.66 11.172,21.543 19.316,29.644 8.145,8.11 17.676,14.317 28.575,18.637 10.898,4.312 22.5,6.48 34.843,6.48 12.324,0 23.985,-2.168 35,-6.48 10.996,-4.32 20.569,-10.527 28.709,-18.637 8.15,-8.101 14.59,-17.984 19.32,-29.644 4.73,-11.68 7.11,-24.844 7.11,-39.535 0,-14.059 -2.38,-26.915 -7.11,-38.575 z m 44.59,171.446 c -16.41,15.976 -35.55,28.363 -57.46,37.113 -21.92,8.75 -45.295,13.125 -70.159,13.125 -11.445,0 -22.793,-1.406 -34.023,-4.223 -11.231,-2.808 -22.07,-6.64 -32.52,-11.504 -10.468,-4.859 -20.527,-10.64 -30.215,-17.343 -9.687,-6.7 -18.613,-13.829 -26.738,-21.383 l -35.996,41.812 H 770.742 V 36.9023 h 90.801 V 192.473 c 6.836,-3.91 13.926,-7.676 21.309,-11.348 7.363,-3.676 14.843,-6.977 22.441,-9.887 7.598,-2.91 15.312,-5.23 23.125,-6.972 7.812,-1.715 15.684,-2.594 23.613,-2.594 24.864,0 48.239,4.219 70.159,12.637 21.91,8.433 41.05,20.582 57.46,36.461 16.4,15.878 29.33,35.214 38.81,58.007 9.45,22.793 14.2,48.457 14.2,76.993 0,27.421 -4.75,52.445 -14.2,75.023 -9.48,22.574 -22.41,41.852 -38.81,57.848 z m 655.26,36.957 c -19.8,0 -38.96,-3.52 -57.46,-10.547 -18.5,-7.035 -35,-17.016 -49.51,-29.961 l -29.73,41.148 h -21.79 V 169.133 h 90.15 v 191.211 c 0,9.297 1.76,18.047 5.28,26.25 3.51,8.203 8.35,15.332 14.53,21.383 6.15,6.054 13.41,10.8 21.77,14.257 8.36,3.457 17.29,5.2 26.76,5.2 h 79.6 v 88.164 z M 638.961,324.363 c 0,-9.297 -1.777,-18.3 -5.293,-27.05 -3.516,-8.75 -8.359,-16.583 -14.512,-23.497 -6.172,-6.914 -13.379,-12.476 -21.621,-16.699 -8.262,-4.219 -17.012,-6.308 -26.25,-6.308 -9.472,0 -18.34,1.601 -26.582,4.843 -8.262,3.243 -15.469,7.989 -21.64,14.258 -6.172,6.274 -11.055,14.008 -14.688,23.188 -3.633,9.175 -5.449,19.586 -5.449,31.265 V 516.238 H 413.121 V 324.363 c 0,-24.843 4.121,-47.265 12.383,-67.246 8.242,-20 19.59,-36.949 34.004,-50.879 14.414,-13.941 31.191,-24.683 50.351,-32.246 19.141,-7.558 39.629,-11.347 61.426,-11.347 9.883,0 19.629,1.25 29.199,3.734 9.571,2.5 18.887,5.816 27.911,10.039 9.023,4.219 17.675,9.18 25.937,14.898 8.242,5.727 15.996,11.836 23.262,18.325 l 29.726,-40.508 h 21.797 V 516.238 H 638.961 Z M 337.305,407.18 c -12.891,12.633 -27.969,22.578 -45.235,29.824 -17.285,7.223 -35.722,10.855 -55.312,10.855 h -94.766 c -6.601,0 -12.773,1.172 -18.496,3.559 -5.723,2.383 -10.723,5.66 -15.019,9.883 -4.297,4.215 -7.657,9.176 -10.0786,14.898 -2.4218,5.727 -3.6132,11.836 -3.6132,18.321 0,6.488 1.1914,12.523 3.6132,18.148 2.4216,5.625 5.7816,10.523 10.0786,14.742 4.296,4.223 9.296,7.5 15.019,9.887 5.723,2.383 11.895,3.57 18.496,3.57 h 217.266 v 93.012 H 141.992 c -19.609,0 -37.988,-3.676 -55.1561,-11.02 C 69.668,615.516 54.6484,605.516 41.7773,592.883 28.8867,580.242 18.7109,565.5 11.2305,548.641 3.73047,531.785 0,513.738 0,494.52 c 0,-19.239 3.73047,-37.34 11.2305,-54.297 7.4804,-16.953 17.6562,-31.754 30.5468,-44.395 12.8711,-12.637 27.8907,-22.637 45.0586,-29.98 17.1681,-7.34 35.5471,-11.012 55.1561,-11.012 h 94.766 c 6.601,0 12.754,-1.195 18.496,-3.574 5.723,-2.383 10.723,-5.664 15.019,-9.883 4.297,-4.223 7.657,-9.121 10.079,-14.746 2.421,-5.625 3.632,-11.66 3.632,-18.149 0,-6.48 -1.211,-12.515 -3.632,-18.14 -2.422,-5.625 -5.782,-10.531 -10.079,-14.746 -4.296,-4.219 -9.296,-7.524 -15.019,-9.907 -5.742,-2.382 -11.895,-3.55 -18.496,-3.55 H 26.4258 V 169.133 H 236.758 c 19.59,0 38.027,3.672 55.312,11.012 17.266,7.343 32.344,17.328 45.235,29.984 12.871,12.637 22.988,27.383 30.371,44.234 7.383,16.836 11.074,34.887 11.074,54.121 0,19.219 -3.691,37.325 -11.074,54.282 -7.383,16.953 -17.5,31.754 -30.371,44.414" style="fill:url(#linearGradient80);fill-opacity:1;fill-rule:nonzero;stroke:none" id="path82"></path></g></g><g id="g84"><g id="g86" clip-path="url(#clipPath90)"><path d="m 2743.68,310.586 c -4.73,-11.348 -11.18,-21.387 -19.32,-30.137 -8.14,-8.75 -17.65,-15.781 -28.55,-21.074 -10.9,-5.293 -22.52,-7.93 -34.85,-7.93 -12.32,0 -23.92,2.051 -34.82,6.153 -10.9,4.101 -20.37,10.136 -28.4,18.144 -8.05,7.988 -14.38,17.871 -18.99,29.649 -4.62,11.777 -6.93,25.234 -6.93,40.371 0,15.117 2.31,28.554 6.93,40.332 4.61,11.777 10.94,21.66 18.99,29.668 8.03,7.988 17.5,14.043 28.4,18.144 10.9,4.102 22.5,6.153 34.82,6.153 12.33,0 23.95,-2.657 34.85,-7.95 10.9,-5.293 20.41,-12.304 28.55,-21.054 8.14,-8.75 14.59,-18.809 19.32,-30.137 4.72,-11.348 7.11,-23.066 7.11,-35.156 0,-12.11 -2.39,-23.848 -7.11,-35.176 z m 76.11,205 -35,-41.172 c -8.36,7.774 -17.34,15.02 -26.91,21.719 -9.57,6.699 -19.65,12.539 -30.22,17.5 -10.56,4.961 -21.46,8.847 -32.69,11.66 -11.23,2.812 -22.56,4.219 -34.01,4.219 -24.88,0 -48.26,-4.492 -70.15,-13.457 -21.92,-8.965 -41.06,-21.543 -57.47,-37.754 -16.4,-16.211 -29.33,-35.586 -38.78,-58.164 -9.48,-22.578 -14.2,-47.383 -14.2,-74.375 0,-28.965 4.72,-54.785 14.2,-77.481 9.45,-22.695 22.38,-41.855 38.78,-57.519 16.41,-15.664 35.55,-27.617 57.47,-35.821 21.89,-8.183 45.27,-12.304 70.15,-12.304 11.45,0 22.72,1.406 33.85,4.218 11.11,2.813 21.95,6.641 32.52,11.504 10.57,4.844 20.64,10.567 30.21,17.168 9.57,6.602 18.66,13.672 27.25,21.231 l 35,-47.637 h 21.8 V 515.586 Z M 2149.11,353.848 c -10.12,9.062 -22.02,16.152 -35.65,21.23 -13.65,5.078 -28.18,7.617 -43.59,7.617 h -93.77 c -6.17,0 -11.47,2.207 -15.86,6.641 -4.41,4.434 -6.6,9.785 -6.6,16.055 0,6.035 2.19,11.211 6.6,15.547 4.39,4.316 9.69,6.484 15.86,6.484 h 182.6 v 88.164 h -182.6 c -15.65,0 -30.29,-2.871 -43.93,-8.594 -13.65,-5.742 -25.54,-13.574 -35.66,-23.496 -10.12,-9.941 -18.11,-21.601 -23.93,-35 -5.84,-13.398 -8.75,-27.773 -8.75,-43.105 0,-15.352 2.91,-29.707 8.75,-43.106 5.82,-13.398 13.81,-25.137 23.93,-35.176 10.12,-10.039 22.01,-17.988 35.66,-23.808 13.64,-5.84 28.28,-8.75 43.93,-8.75 h 93.77 c 6.17,0 11.44,-0.977 15.86,-2.93 4.39,-1.953 6.6,-6.055 6.6,-12.305 0,-6.054 -2.21,-11.25 -6.6,-15.566 -4.42,-4.316 -9.69,-6.465 -15.86,-6.465 h -206.04 v -88.164 h 206.04 c 15.41,0 29.94,2.852 43.59,8.574 13.63,5.723 25.53,13.614 35.65,23.672 10.11,10.039 18.16,21.719 24.1,35 5.94,13.281 8.92,27.598 8.92,42.949 0,15.118 -2.98,29.043 -8.92,41.797 -5.94,12.754 -13.99,23.672 -24.1,32.735 z m 176.35,300.449 h -89.8 V 515.586 h -43.93 v -88.164 h 43.93 V 324.355 c 0,-21.386 4.12,-41.484 12.38,-60.273 8.24,-18.809 19.59,-35.293 34.01,-49.434 14.41,-14.14 31.21,-25.273 50.35,-33.378 19.14,-8.106 39.63,-12.149 61.42,-12.149 h 68.36 v 88.164 h -68.36 c -9.47,0 -18.4,1.778 -26.75,5.332 -8.36,3.555 -15.63,8.36 -21.8,14.414 -6.17,6.055 -11.02,13.125 -14.53,21.231 -3.52,8.105 -5.28,16.797 -5.28,26.093 v 103.067 h 136.72 v 88.164 h -136.72 v 138.711" style="fill:url(#linearGradient96);fill-opacity:1;fill-rule:nonzero;stroke:none" id="path98"></path></g></g><g id="g100"><g id="g102" clip-path="url(#clipPath106)"><path d="m 3369.8,280.84 c 19.63,12.246 38.59,24.765 56.86,37.441 -23.48,4.668 -58.17,15.235 -64.83,10.977 -4.07,-2.598 -10.72,-20.93 -14.85,-23.504 -131.77,-82.309 -265.48,-130.969 -346.28,-135.332 4.36,-11.262 7.97,-22.551 11.15,-33.82 89.47,8.203 222.57,59.687 357.95,144.238" style="fill:url(#linearGradient112);fill-opacity:1;fill-rule:nonzero;stroke:none" id="path114"></path></g></g><g id="g116"><g id="g118" clip-path="url(#clipPath122)"><path d="m 3437.91,318.328 c 0,-25.105 -20.37,-45.457 -45.47,-45.457 -25.11,0 -45.46,20.352 -45.46,45.457 0,25.11 20.35,45.461 45.46,45.461 25.1,0 45.47,-20.351 45.47,-45.461" style="fill:url(#linearGradient128);fill-opacity:1;fill-rule:nonzero;stroke:none" id="path130"></path></g></g><g id="g132"><g id="g134" clip-path="url(#clipPath138)"><path d="m 3421.29,340.5 c 0,-10.859 -11.99,-19.68 -26.79,-19.68 -14.79,0 -26.78,8.821 -26.78,19.68 0,10.867 11.99,19.676 26.78,19.676 14.8,0 26.79,-8.809 26.79,-19.676" style="fill:url(#linearGradient144);fill-opacity:1;fill-rule:nonzero;stroke:none" id="path146"></path></g></g><g id="g148"><g id="g150" clip-path="url(#clipPath154)"><path d="m 3410.37,290.184 c 0,-6.036 -7.35,-10.926 -16.42,-10.926 -9.04,0 -16.4,4.89 -16.4,10.926 0,6.046 7.36,10.949 16.4,10.949 9.07,0 16.42,-4.903 16.42,-10.949" style="fill:url(#linearGradient160);fill-opacity:1;fill-rule:nonzero;stroke:none" id="path162"></path></g></g><g id="g164"><g id="g166" clip-path="url(#clipPath170)"><path d="m 1281.2,425.098 c 4.17,4.328 8.76,8.093 13.71,11.371 15.35,10.988 34.12,17.523 54.44,17.523 38.27,0 71.13,-22.961 85.7,-55.84 h -171.54 c 4.48,10.317 10.33,19.336 17.69,26.946 z m 194.4,-98.606 h 46.97 c 1.51,9.77 2.47,19.738 2.47,30.071 0,27.656 -4.74,52.773 -14.2,75.351 -9.47,22.578 -22.34,41.914 -38.63,58.008 -16.29,16.094 -35.39,28.516 -57.28,37.266 -21.92,8.75 -45.41,13.125 -70.49,13.125 -24.88,0 -48.28,-4.649 -70.18,-13.946 -21.91,-9.297 -41.05,-22.09 -57.46,-38.398 -16.4,-16.309 -29.33,-35.703 -38.79,-58.164 -9.47,-22.481 -14.2,-46.895 -14.2,-73.242 0,-9.172 0.81,-18.047 2,-26.778 14.56,-88.34 91.07,-155.793 183.54,-155.793 5.94,0 11.79,0.371 17.59,0.918 16.74,1.992 32.77,6.106 47.99,12.629 21.89,9.395 40.99,22.246 57.28,38.555 16.29,16.308 29.16,35.644 38.63,58.008 0.68,1.601 1.15,3.273 1.78,4.89 h -102.43 c -2.65,-2.254 -5.45,-4.312 -8.33,-6.269 -6.73,-5.633 -14.25,-10.211 -22.6,-13.68 -10.89,-4.531 -22.52,-6.797 -34.82,-6.797 -12.35,0 -23.95,2.422 -34.85,7.285 -10.89,4.864 -20.37,11.504 -28.39,19.942 -8.05,8.418 -14.38,18.359 -18.99,29.804 -0.95,2.356 -1.74,4.778 -2.5,7.215 h 177.03 38.86" style="fill:url(#linearGradient176);fill-opacity:1;fill-rule:nonzero;stroke:none" id="path178"></path></g></g></g></g></svg>